<?xml version="1.0" encoding="utf-8"?>
<!-- Generator: Adobe Illustrator 19.1.0, SVG Export Plug-In . SVG Version: 6.00 Build 0)  -->
<svg version="1.1" id="Layer_1" xmlns="http://www.w3.org/2000/svg" xmlns:xlink="http://www.w3.org/1999/xlink" x="0px" y="0px"
	 viewBox="0 0 535.3 129.3" style="enable-background:new 0 0 535.3 129.3;" xml:space="preserve">
<style type="text/css">
	.st0{fill:#FEC102;}
	.st1{fill:#FF7402;}
	.st2{fill:#439DA6;}
	.st3{fill:#0087D9;}
	.st4{fill:#003CA6;}
	.st5{fill:#EC1E23;}
	.st6{fill:#9F0029;}
	.st7{fill:#702B8E;}
	.st8{fill:#AF218E;}
</style>
<path class="st0" d="M125.8,18.6H156v-0.1h0v0.1h30.2c0,0-0.1,0-0.1-0.1h0.1c-8.5-5.5-18.6-8.7-29.4-8.9c-0.3,0-0.5,0-0.8,0h0h0h0
	c-0.2,0-0.5,0-0.8,0C144.3,9.8,134.2,13.1,125.8,18.6L125.8,18.6C125.9,18.6,125.8,18.6,125.8,18.6"/>
<path class="st1" d="M110.6,33.2h1h3h4.3h5.1h3.1h2.3h5.2h1.6c1,0,2.1-0.3,3-0.7c2.5-1.1,8.9-1.8,16.4-1.8c7.5,0,13.9,0.8,16.4,1.8
	c1,0.4,2,0.7,3,0.7h2.3h5.2h3.2h2.2h5.1h4.3h3h1.1c-0.1-0.2-0.2-0.3-0.4-0.5c0,0,0,0,0,0c-0.3-0.5-0.7-0.9-1-1.3
	c-0.2-0.3-0.5-0.6-0.7-0.9c-0.4-0.4-0.7-0.9-1.1-1.3c-0.2-0.3-0.5-0.6-0.8-0.9c-0.4-0.4-0.8-0.9-1.2-1.3c-0.2-0.3-0.5-0.5-0.8-0.8
	c-0.4-0.4-0.9-0.9-1.3-1.3c-0.2-0.2-0.4-0.4-0.6-0.6h-7.8h-27h-2.7h0H154h-27h-8.7h0c-0.2,0.2-0.4,0.4-0.6,0.6
	c-0.4,0.4-0.9,0.8-1.3,1.3c-0.3,0.3-0.5,0.5-0.8,0.8c-0.4,0.4-0.8,0.8-1.2,1.3c-0.3,0.3-0.5,0.6-0.7,0.9c-0.4,0.4-0.7,0.9-1.1,1.3
	c-0.2,0.3-0.5,0.6-0.7,0.9c-0.3,0.4-0.7,0.9-1,1.3v0c-0.1,0.2-0.3,0.3-0.4,0.5H110.6L110.6,33.2"/>
<path class="st2" d="M185.7,112h-28.3h-1.5h0h-1h-28.7c0,0,0.1,0,0.1,0.1h-0.1c8.6,5.5,18.8,8.6,29.7,8.6h0v-0.1c0,0,0,0,0,0l0,0.1
	h0C166.9,120.7,177.1,117.6,185.7,112L185.7,112C185.6,112.1,185.6,112,185.7,112"/>
<path class="st3" d="M201.1,97.4h-20.9h-5.6c-0.4,0-0.8,0-1.2,0.1c-0.6,0.1-1.5,0.5-2.1,0.8c-2.2,1.1-8.3,1.9-15.7,1.9
	c-7.2,0-13.4-0.8-15.6-1.9c-0.7-0.4-1.4-0.7-2.2-0.8c-0.4-0.1-0.8-0.1-1.2-0.1h-9.6h-16.3c0,0,0,0,0,0.1c0,0,0,0,0-0.1h0
	c0,0,0,0,0,0.1h0c0.1,0.1,0.2,0.3,0.3,0.4c0.3,0.5,0.7,0.9,1,1.4c0.2,0.3,0.5,0.6,0.7,0.9c0.4,0.5,0.8,0.9,1.2,1.4
	c0.2,0.3,0.5,0.5,0.7,0.8c0.4,0.5,0.9,1,1.4,1.5c0.2,0.2,0.4,0.4,0.6,0.6c0.7,0.7,1.4,1.3,2.1,2c0,0,0,0,0,0h36.6h0.6h0h0.9h36.4
	c0,0,0,0,0,0c0.7-0.6,1.4-1.3,2.1-2c0.2-0.2,0.4-0.4,0.6-0.6c0.5-0.5,0.9-1,1.4-1.5c0.2-0.3,0.5-0.5,0.7-0.8
	c0.4-0.5,0.8-0.9,1.2-1.4c0.2-0.3,0.5-0.6,0.7-0.9c0.4-0.5,0.7-0.9,1-1.4C201,97.8,201.1,97.6,201.1,97.4L201.1,97.4
	C201.1,97.5,201.1,97.4,201.1,97.4"/>
<path class="st4" d="M501.1,64.7c-0.2,16.1-13.1,29.5-29.5,29.7c-16.6,0-30-13.2-30.2-29.3c-0.2-16.6,13.4-30.9,30.4-30.6
	C488.4,34.9,501.3,48.5,501.1,64.7 M527.1,63.8c-0.6-30-24.3-54.3-54.9-54.8c-31.5-0.5-56.7,25.3-56.7,56.3
	c0,30.6,25,55.9,56.2,55.7C502.9,120.8,527.8,94.7,527.1,63.8"/>
<path class="st4" d="M394.5,84.4c-5.4,6.2-13.2,10.1-22,10.2c-16.6,0-30.1-13.3-30.2-29.6c-0.2-16.8,13.5-31.2,30.4-30.8
	c8.4,0.2,15.9,3.8,21.2,9.5l18.3-18.3c-9.9-10.2-23.6-16.6-39.1-16.9c-31.5-0.6-56.8,25.6-56.8,56.8c0,30.8,25.1,56.4,56.2,56.2
	c16.2-0.1,30.6-7.1,40.7-18.2L394.5,84.4z"/>
<path class="st4" d="M34,29.6v1.9v3.6v9.1v13.6V59v0.1v7.5v9.6V121c0,0,0,0,0,0H9.6c0,0,0,0,0,0V44v-2.2V28.9v-7.2V8.5h13H34h8.2
	h15.4h7.9c16.9,1.2,30.3,15.8,30.3,33.3V44c0,15.2-10.1,26.5-25.5,32.3C80.4,94.6,96.9,121,96.9,121H69.8L38.5,66.8
	c-0.4-0.9-0.7-1.7-0.7-2.5c0-2.8,2.3-5.2,5-5.2h14.7c8.4,0,15.1-7.4,14.3-16.2c-0.7-7.7-7.3-13.3-14.8-13.3H43.3H34z"/>
<path class="st4" d="M245.6,95.3c5.3,1.6,10.1,3,14.4,3.6c0.4,0.1,0.7,0.1,1,0.1c3.7,0.4,7.4,0.4,10.8-0.3c3.9-0.8,8-2.6,10.3-6.1
	c3.3-5.2,0.6-10-4.5-12.1c-5.3-2.2-11.2-2.5-16.8-3.4c-7.5-1.2-15.3-2.7-22.3-5.7c-6.3-2.6-12.4-7.2-15.7-13.4
	c-2.9-5.5-3.3-11.9-2.8-18c1-12.7,9.9-22.1,21.1-26.8c14.6-6.1,29.8-4.1,44.6,0.1c7.1,2,13,4.4,15.9,5.7c1.5,0.7,2.5,1.1,2.6,1.2
	l-14.1,20.3l-3.3-1.3l-1.1-0.4c-0.6-0.2-1.2-0.5-1.8-0.7c-3.6-1.3-7-2.6-10.2-3.4c-5.9-1.6-12-2.4-17.6-1.1
	c-3.5,0.8-7.6,2.6-9.5,6.1c-2.5,4.6-0.7,9.1,3.8,11.4c5,2.6,11.1,3.3,16.6,4.1c6,0.8,11.8,1.8,17.7,3.4c10.8,3,20.7,8.6,23.7,20.4
	c2.6,10.1,0.7,21.6-6.3,29.4c-8.3,9.1-21.2,12.7-33.1,13.1c-2.7,0.1-5.3,0-7.8-0.2c-14.6-0.6-32.6-8.5-33.7-8.9l-7.8-3.8l13.2-18.2
	l7.8,3"/>
<path class="st5" d="M103.2,47.8L103.2,47.8C103.2,47.8,103.2,47.9,103.2,47.8l1.9,0.1h4.6h5.9h1.6c0.6,0,1.4,0,2.5-0.1h1.7
	c0.4,0,0.8,0,1.2-0.1c0.6-0.1,1.2-0.2,1.8-0.5c2.4-1,11.3-1.8,22.7-2.1c2.7-0.1,5.6-0.1,8.6-0.1c4.5,0,8.9,0.1,12.8,0.2
	c0.5,0,1,0,1.5,0.1l0,0c0,0,0.3,0,0.8,0c0.8,0,1.6,0.1,2.3,0.1c7,0.4,12.2,1,13.9,1.8c0.1,0.1,0.3,0.1,0.4,0.2
	c0.9,0.3,1.7,0.4,2.6,0.4c1.1,0,4.4,0.1,4.9,0.1h1.6h5.9h4.6h1.8c-1-3.1-2.3-6-3.8-8.9h-22.7c-0.6,0.1-1.2,0.2-1.8,0.4
	c-0.2,0.1-0.3,0.1-0.5,0.2c-0.7,0.3-1.8,0.6-3.2,0.8c-4.5,0.8-12.4,1.3-21.3,1.3c-7.9,0-15-0.4-19.7-1c-2.3-0.3-4-0.7-4.9-1.1
	c-0.4-0.2-0.8-0.3-1.3-0.4c-0.3-0.1-0.7-0.1-1-0.2H107"/>
<path class="st6" d="M100.5,62.5h1.8h4.4h5.6h2.5c0.4,0,0.8,0,1.3-0.1h2.3c0.4,0,0.7-0.1,1-0.3c0,0,0,0,0,0
	c0.9-0.6,4.6-1.2,10.2-1.7c3.9-0.3,8.7-0.5,14.1-0.7c0,0,0,0,0,0l0,0c0.1,0,0.2,0,0.3,0c3.6-0.1,7.4-0.1,11.3-0.1
	c11.6,0,22,0.4,28.6,1.1c3.7,0.4,6.3,0.8,7.2,1.3c0.1,0,0.2,0.1,0.2,0.1c0.3,0.2,0.6,0.3,1,0.3h18.9c-0.1-3-0.5-6-1.2-8.8h-1h-19
	c-0.2,0-0.3,0.1-0.5,0.2c-0.1,0.1-0.2,0.1-0.3,0.2c-0.9,0.4-3.1,0.8-6.2,1.2c-6.3,0.7-16.4,1.1-27.8,1.1c-9.3,0-17.8-0.3-24-0.8
	c-5.6-0.4-9.3-1-10.2-1.7c0,0,0,0,0,0c-0.1-0.1-0.2-0.1-0.4-0.2h-19.3c-0.1,0.2-0.3,1.1-0.3,1.3C101,56.8,100.7,60.6,100.5,62.5"/>
<path class="st7" d="M207.4,68.2H195c-2.9,0-2.7,0.2-4.2,0.6c0,0,0,0,0,0c0,0-0.1,0-0.1,0c-0.6,0.2-1.6,0.4-2.7,0.6
	c-0.3,0-0.5,0.1-0.5,0.1l0,0c-0.1,0-0.1,0-0.2,0c-6.2,0.9-18.1,1.4-31.7,1.4c-11.9,0-22.4-0.4-29-1.1c-3.2-0.3-5.5-0.7-6.5-1.1
	c-0.1,0-0.1-0.1-0.2-0.1c-0.4-0.2-0.9-0.3-1.4-0.4h-13.9h-4c0.1,1.4,0.2,2.8,0.4,4.2l0.2,1.4c0.2,1.1,0.4,2.2,0.6,3.2h16.2
	c0.6,0,1.3,0,1.9-0.1c0.1,0,0.1,0,0.2,0c0.6,0,1.1-0.2,1.6-0.4c1.9-1,10.9-1.9,22.9-2.2c3.5-0.1,7.2-0.1,11-0.1c6.2,0,12,0.1,17,0.4
	c8.9,0.4,15.3,1.1,16.9,2c0.3,0.1,0.6,0.2,0.9,0.3c0.4,0.1,0.7,0.1,1.1,0.1h0.8c0.6,0,1.2,0,1.8,0.1h16.2c0.6-2.9,1-5.9,1.2-8.9
	H207.4z"/>
<path class="st8" d="M129.2,91.7c0.5,0,0.9-0.1,1.3-0.2c0.3-0.1,0.5-0.2,0.8-0.3c1.3-0.7,5.2-1.4,10.6-1.8c3.9-0.3,8.6-0.5,13.6-0.5
	c6.3,0,12.1,0.3,16.4,0.7c3.9,0.4,6.6,0.9,7.7,1.5c0.1,0.1,0.3,0.2,0.5,0.2c0.5,0.2,1.2,0.3,1.7,0.3h1.7c0.4,0,0.8,0,1.2,0.1h20.1
	c1.5-2.8,2.8-5.8,3.9-8.9h-5.8h-14.7c-0.4,0.1-0.8,0.2-1.2,0.4c0,0,0,0,0,0c-0.9,0.5-3.2,0.9-6.5,1.3c-5.8,0.6-14.7,1.1-24.8,1.1
	c-8.3,0-15.9-0.3-21.5-0.7c-4.4-0.4-7.7-0.8-9.2-1.4c0,0,0,0,0,0c-0.1-0.1-0.3-0.1-0.4-0.2c0,0,0,0,0,0c-1-0.4-1.9-0.4-1.9-0.4h-2.8
	h-10.6h-5.8c0.7,2,1.5,4,2.3,5.9c0,0.1,0.1,0.2,0.1,0.4c0,0,0,0.1,0,0.1c0.1,0.1,0.1,0.2,0.2,0.3c0.4,0.8,0.8,1.5,1.2,2.2h20"/>
</svg>
